# xmcd
#
# Track frame offsets: 
#        150
#        23815
#        50938
#        76144
#        102589
#        128998
#        163824
#        186466
#        209105
#        226345
#        249593
#
# Disc length: 3911 seconds
#
# Revision: 3
# Processed by: cddbd v1.5.2PL0 Copyright (c) Steve Scherf et al.
# Submitted via: ExactAudioCopy v1.0b1
#
DISCID=a30f450b
DTITLE=Jill Jack - Watch Over Me
DYEAR=1997
DGENRE=Blues
TTITLE0=Stirs My Soul
TTITLE1=Rosie
TTITLE2=Austin
TTITLE3=Leavin'
TTITLE4=Watch Over Me
TTITLE5=Summertime
TTITLE6=Holding Hour
TTITLE7=Don't Bring Me Down
TTITLE8=Nowhere Bound
TTITLE9=Colorado
TTITLE10=My Own Sin
EXTD=
EXTT0=
EXTT1=
EXTT2=
EXTT3=
EXTT4=
EXTT5=
EXTT6=
EXTT7=
EXTT8=
EXTT9=
EXTT10=
PLAYORDER=
